<?xml version="1.0" encoding="UTF-8" standalone="no"?>

<svg id="diagram" viewBox="-105 -291.25 535 361.25" xmlns="http://www.w3.org/2000/svg">
  <!-- yes chrome(svg-to-png) this is UTF-8: °C -->
  
  <style>
    .text {
      font-size: 0.8rem;
      font-family: Arial,Helvetica,sans-serif;
    }
    #units .text{
      font-size: 1rem;
    }
    #units .thick{
      font-weight: bold;
    }
    g#curves path{
      stroke: #000;
      stroke-width: 1.5;
      stroke-opacity: 1;
      fill: none;
      fill-opacity: 1;
    }
    .small, #units .small {
      font-size: 0.4rem;
    }
  </style>
  <defs>
    <marker id="arrow" markerWidth="10" markerHeight="10" refX="0" refY="4" orient="auto">
      <path d="M0,0 L0,8 L10,4 z" style="fill: black; stroke-width:0;"/>
    </marker>
    <marker id="arrowCurrent" markerWidth="10" markerHeight="10" refX="0" refY="4" orient="auto">
      <path d="M0,0 L0,8 L10,4 z" style="fill: #d00; stroke-width:0;"/>
    </marker>
    <marker id="arrowPower" markerWidth="10" markerHeight="10" refX="0" refY="4" orient="auto">
      <path d="M0,0 L0,8 L10,4 z" style="fill: #05d; stroke-width:0;"/>
    </marker>
    <marker id="arrowEfficiency" markerWidth="10" markerHeight="10" refX="0" refY="4" orient="auto">
      <path d="M0,0 L0,8 L10,4 z" style="fill: #191; stroke-width:0;"/>
    </marker>
    <marker id="arrowLoss" markerWidth="10" markerHeight="10" refX="0" refY="4" orient="auto">
      <path d="M0,0 L0,8 L10,4 z" style="fill: #0092D0; stroke-width:0;"/>
    </marker>
    <clipPath id="background">
      <rect x="0" y="-251.25" width="335" height="251.25" />
    </clipPath>
  </defs>

  

  <g id="backgroundColor">
    <rect x="0" y="-251.25" width="335" height="251.25" stroke="none" fill="#ecf0f8"/>
  </g>

  <g id="grid">
    <line x1="0" y1="0" x2="325" y2="0" style="stroke: black; stroke-width: 1;" marker-end="url(#arrow)"/>
    <line x1="0" y1="0" x2="0" y2="-241.25" style="stroke: black; stroke-width: 1;" marker-end="url(#arrow)"/>
    <line x1="-60" y1="0" x2="-60" y2="-241.25" style="stroke: #d00; stroke-width: 1;" marker-end="url(#arrowCurrent)"/>

    <line x1="335" y1="0" x2="335" y2="-241.25" style="stroke: #05d; stroke-width: 1;" marker-end="url(#arrowPower)"/>
    <line x1="395" y1="0" x2="395" y2="-241.25" style="stroke: #191; stroke-width: 1;" marker-end="url(#arrowEfficiency)"/>
    
      <line x1="41.396" y1="0" x2="41.396" y2="-251.25" style="stroke:rgb(127,127,127); stroke-width:0.25; stroke-dasharray:1 0.5; "/>
    
      <line x1="82.792" y1="0" x2="82.792" y2="-251.25" style="stroke:rgb(127,127,127); stroke-width:0.25; stroke-dasharray:1 0.5; "/>
    
      <line x1="124.188" y1="0" x2="124.188" y2="-251.25" style="stroke:rgb(127,127,127); stroke-width:0.25; stroke-dasharray:1 0.5; "/>
    
      <line x1="165.584" y1="0" x2="165.584" y2="-251.25" style="stroke:rgb(127,127,127); stroke-width:0.25; stroke-dasharray:1 0.5; "/>
    
      <line x1="206.98" y1="0" x2="206.98" y2="-251.25" style="stroke:rgb(127,127,127); stroke-width:0.25; stroke-dasharray:1 0.5; "/>
    
      <line x1="248.376" y1="0" x2="248.376" y2="-251.25" style="stroke:rgb(127,127,127); stroke-width:0.25; stroke-dasharray:1 0.5; "/>
    
      <line x1="289.772" y1="0" x2="289.772" y2="-251.25" style="stroke:rgb(127,127,127); stroke-width:0.25; stroke-dasharray:1 0.5; "/>
    
      <line x1="331.168" y1="0" x2="331.168" y2="-251.25" style="stroke:rgb(127,127,127); stroke-width:0.25; stroke-dasharray:1 0.5; "/>
    
      <line x1="0" y1="-27.349" x2="335" y2="-27.349" style="stroke:rgb(127,127,127); stroke-width:0.25; stroke-dasharray:1 0.5; "/>
    
      <line x1="0" y1="-54.698" x2="335" y2="-54.698" style="stroke:rgb(127,127,127); stroke-width:0.25; stroke-dasharray:1 0.5; "/>
    
      <line x1="0" y1="-82.047" x2="335" y2="-82.047" style="stroke:rgb(127,127,127); stroke-width:0.25; stroke-dasharray:1 0.5; "/>
    
      <line x1="0" y1="-109.396" x2="335" y2="-109.396" style="stroke:rgb(127,127,127); stroke-width:0.25; stroke-dasharray:1 0.5; "/>
    
      <line x1="0" y1="-136.745" x2="335" y2="-136.745" style="stroke:rgb(127,127,127); stroke-width:0.25; stroke-dasharray:1 0.5; "/>
    
      <line x1="0" y1="-164.094" x2="335" y2="-164.094" style="stroke:rgb(127,127,127); stroke-width:0.25; stroke-dasharray:1 0.5; "/>
    
      <line x1="0" y1="-191.443" x2="335" y2="-191.443" style="stroke:rgb(127,127,127); stroke-width:0.25; stroke-dasharray:1 0.5; "/>
    
      <line x1="0" y1="-218.792" x2="335" y2="-218.792" style="stroke:rgb(127,127,127); stroke-width:0.25; stroke-dasharray:1 0.5; "/>
    
      <line x1="0" y1="-246.141" x2="335" y2="-246.141" style="stroke:rgb(127,127,127); stroke-width:0.25; stroke-dasharray:1 0.5; "/>
    
  </g>

  <g id="curves">
    <path d="M0,-228.409 71.532,-174.76 304.545,-0" style="stroke: black; stroke-dasharray:5 3; " clip-path="url(#background)"/>
    <path d="M0,-2.457 71.532,-55.529 304.545,-228.409" style="stroke: #d00; stroke-dasharray:3 5; " clip-path="url(#background)"/>
    <path d="M0,-0.001 0.305,-0.913 0.609,-1.824 0.914,-2.733 1.218,-3.64 1.523,-4.545 1.827,-5.449 2.132,-6.351 2.436,-7.251 2.741,-8.149 3.045,-9.045 6.091,-17.907 9.136,-26.587 12.182,-35.084 15.227,-43.398 18.273,-51.529 21.318,-59.478 24.364,-67.244 27.409,-74.827 30.455,-82.227 33.5,-89.445 36.545,-96.48 39.591,-103.332 42.636,-110.002 45.682,-116.489 48.727,-122.793 51.773,-128.914 54.818,-134.853 57.864,-140.609 60.909,-146.182 63.955,-151.572 67,-156.78 70.045,-161.805 73.091,-166.647 76.136,-171.307 79.182,-175.784 82.227,-180.078 85.273,-184.189 88.318,-188.118 91.364,-191.864 94.409,-195.427 97.455,-198.807 100.5,-202.005 103.545,-205.02 106.591,-207.852 109.636,-210.502 112.682,-212.969 115.727,-215.253 118.773,-217.354 121.818,-219.273 124.864,-221.009 127.909,-222.562 130.955,-223.932 134,-225.12 137.045,-226.125 140.091,-226.947 143.136,-227.587 146.182,-228.044 149.227,-228.318 152.273,-228.409 155.318,-228.318 158.364,-228.044 161.409,-227.587 164.455,-226.947 167.5,-226.125 170.545,-225.12 173.591,-223.932 176.636,-222.562 179.682,-221.009 182.727,-219.273 185.773,-217.354 188.818,-215.253 191.864,-212.969 194.909,-210.502 197.955,-207.852 201,-205.02 204.045,-202.005 207.091,-198.807 210.136,-195.427 213.182,-191.864 216.227,-188.118 219.273,-184.189 222.318,-180.078 225.364,-175.784 228.409,-171.307 231.455,-166.647 234.5,-161.805 237.545,-156.78 240.591,-151.572 243.636,-146.182 246.682,-140.609 249.727,-134.853 252.773,-128.914 255.818,-122.793 258.864,-116.489 261.909,-110.002 264.955,-103.332 268,-96.48 271.045,-89.445 274.091,-82.227 277.136,-74.827 280.182,-67.244 283.227,-59.478 286.273,-51.529 289.318,-43.398 292.364,-35.084 295.409,-26.587 298.455,-17.907 301.5,-9.045 301.805,-8.149 302.109,-7.251 302.414,-6.351 302.718,-5.449 303.023,-4.545 303.327,-3.64 303.632,-2.733 303.936,-1.824 304.241,-0.913 304.545,-0 " style="stroke: #05d;" clip-path="url(#background)"/>
    <path d="M0,-0.002 0.305,-19.802 0.609,-36.491 0.914,-50.74 1.218,-63.042 1.523,-73.764 1.827,-83.188 2.132,-91.531 2.436,-98.964 2.741,-105.626 3.045,-111.627 6.091,-149.419 9.136,-167.567 9.441,-168.843 9.745,-170.049 10.05,-171.189 10.355,-172.268 10.659,-173.289 10.964,-174.257 11.268,-175.175 11.573,-176.045 11.877,-176.871 12.182,-177.656 15.227,-183.656 15.532,-184.108 15.836,-184.537 16.141,-184.946 16.445,-185.335 16.75,-185.705 17.055,-186.057 17.359,-186.392 17.664,-186.71 17.968,-187.012 18.273,-187.299 18.577,-187.572 18.882,-187.83 19.186,-188.076 19.491,-188.308 19.795,-188.528 20.1,-188.736 20.405,-188.933 20.709,-189.119 21.014,-189.294 21.318,-189.459 21.623,-189.615 21.927,-189.761 22.232,-189.898 22.536,-190.026 22.841,-190.145 23.145,-190.257 23.45,-190.36 23.755,-190.456 24.059,-190.545 24.364,-190.626 24.668,-190.701 24.973,-190.768 25.277,-190.83 25.582,-190.885 25.886,-190.934 26.191,-190.977 26.495,-191.015 26.8,-191.047 27.105,-191.073 27.409,-191.095 27.714,-191.111 28.018,-191.123 28.323,-191.129 28.627,-191.132 28.932,-191.129 29.236,-191.123 29.541,-191.112 29.845,-191.097 30.15,-191.077 30.455,-191.054 33.5,-190.631 33.805,-190.572 34.109,-190.509 34.414,-190.444 34.718,-190.375 35.023,-190.305 35.327,-190.231 35.632,-190.155 35.936,-190.077 36.241,-189.996 36.545,-189.913 39.591,-188.963 42.636,-187.826 45.682,-186.539 48.727,-185.126 51.773,-183.61 54.818,-182.005 57.864,-180.327 60.909,-178.584 63.955,-176.785 67,-174.939 70.045,-173.051 73.091,-171.125 76.136,-169.167 79.182,-167.179 82.227,-165.166 85.273,-163.129 88.318,-161.071 91.364,-158.994 94.409,-156.899 97.455,-154.789 100.5,-152.665 103.545,-150.528 106.591,-148.378 109.636,-146.218 112.682,-144.048 115.727,-141.868 118.773,-139.679 121.818,-137.483 124.864,-135.278 127.909,-133.067 130.955,-130.85 134,-128.626 137.045,-126.397 140.091,-124.163 143.136,-121.923 146.182,-119.679 149.227,-117.431 152.273,-115.178 155.318,-112.922 158.364,-110.662 161.409,-108.398 164.455,-106.131 167.5,-103.862 170.545,-101.589 173.591,-99.313 176.636,-97.035 179.682,-94.754 182.727,-92.471 185.773,-90.185 188.818,-87.898 191.864,-85.608 194.909,-83.316 197.955,-81.023 201,-78.728 204.045,-76.431 207.091,-74.132 210.136,-71.832 213.182,-69.53 216.227,-67.227 219.273,-64.922 222.318,-62.616 225.364,-60.309 228.409,-58.001 231.455,-55.691 234.5,-53.38 237.545,-51.069 240.591,-48.756 243.636,-46.442 246.682,-44.127 249.727,-41.812 252.773,-39.495 255.818,-37.177 258.864,-34.859 261.909,-32.54 264.955,-30.22 268,-27.899 271.045,-25.578 274.091,-23.256 277.136,-20.933 280.182,-18.609 283.227,-16.285 286.273,-13.961 289.318,-11.635 292.364,-9.309 295.409,-6.983 298.455,-4.656 301.5,-2.328 301.805,-2.095 302.109,-1.863 302.414,-1.63 302.718,-1.397 303.023,-1.164 303.327,-0.931 303.632,-0.698 303.936,-0.466 304.241,-0.233 304.545,-0 " style="stroke: #191; " clip-path="url(#background)"/>
    
  </g>

  <g id="moptLine">
    <path d="M28.617,0 l0,-251.25')}" style="stroke: #57eeee; "/>
  </g>

  <g id="workingPoint">
    <g>
      
        <circle cx="71.532" cy="-174.76" r="3" style="stroke:#000; stroke-width:1; fill:#fff;"/>
      
        <circle cx="71.532" cy="-55.529" r="3" style="stroke:#000; stroke-width:1; fill:#fff;"/>
      
        <circle cx="71.532" cy="-164.192" r="3" style="stroke:#000; stroke-width:1; fill:#fff;"/>
      
        <circle cx="71.532" cy="-172.115" r="3" style="stroke:#000; stroke-width:1; fill:#fff;"/>
      
    </g>
  </g>

  <g id="units">
    <text class="text" x="0" y="-261.25" text-anchor="middle"><tspan class="thick">n</tspan> [min⁻¹]</text>
    <text class="text" x="-60" y="-261.25" text-anchor="middle" style="fill: #d00;"><tspan class="thick">I</tspan> [A]</text>
    <text class="text" x="335" y="-261.25" text-anchor="middle" style="fill: #05d;"><tspan class="thick">P</tspan> [W]</text>
    <text class="text" x="395" y="-261.25" text-anchor="middle" style="fill: #191;"><tspan class="thick">η</tspan> [%]</text>
    <text class="text" x="355" y="15" dy=".4em"><tspan class="thick">M</tspan> [mNm]</text>
  </g>

  <g id="legend_firstLine">
    <path d="M10,41 l18,0" transform="translate(-3,-3.5)" style="stroke: black; stroke-dasharray:5 3; "/>
    <text class="text" x="27" y="41"><tspan class="thick">n</tspan> [min⁻¹]</text>

    <path d="M110,41 l18,0" transform="translate(-3,-3.5)" style="stroke: #d00; stroke-dasharray:3 5; "/>
    <text class="text" x="127" y="41"><tspan class="thick">I</tspan> [A]</text>

    <path d="M210,41 l18,0" transform="translate(-3,-3.5)" style="stroke: #05d; "/>
    <text class="text" x="227" y="41"><tspan class="thick">P</tspan> [W]</text>

    <path d="M310,41 l18,0" transform="translate(-3,-3.5)" style="stroke: #191; "/>
    <text class="text" x="327" y="41"><tspan class="thick">η</tspan> [%]</text>

    
        <circle cx="10" cy="60" r="3" style="stroke:#000; stroke-width:1; fill:#fff;" transform="translate(4,-3.5)"/>
        <text class="text" x="22" y="61">Operating point of motor</text>
      

    <path d="M210,53 l0,14')}" style="stroke: #57eeee; " transform="translate(4,-3.5)"/>
    <text class="text" x="222" y="61">Max. efficiency</text>
    
  </g>

  
  <g id="line-marker">
    
      <line x1="0" y1="0" x2="0" y2="6" style="stroke: black; stroke-width:0.5;"/>
    
      <line x1="0" y1="0" x2="0" y2="3" style="stroke: black; stroke-width:0.5;"/>
    
      <line x1="0" y1="0" x2="0" y2="3" style="stroke: black; stroke-width:0.5;"/>
    
      <line x1="0" y1="0" x2="0" y2="3" style="stroke: black; stroke-width:0.5;"/>
    
      <line x1="41.396" y1="0" x2="41.396" y2="6" style="stroke: black; stroke-width:0.5;"/>
    
      <line x1="31.047" y1="0" x2="31.047" y2="3" style="stroke: black; stroke-width:0.5;"/>
    
      <line x1="20.698" y1="0" x2="20.698" y2="3" style="stroke: black; stroke-width:0.5;"/>
    
      <line x1="10.349" y1="0" x2="10.349" y2="3" style="stroke: black; stroke-width:0.5;"/>
    
      <line x1="82.792" y1="0" x2="82.792" y2="6" style="stroke: black; stroke-width:0.5;"/>
    
      <line x1="72.443" y1="0" x2="72.443" y2="3" style="stroke: black; stroke-width:0.5;"/>
    
      <line x1="62.094" y1="0" x2="62.094" y2="3" style="stroke: black; stroke-width:0.5;"/>
    
      <line x1="51.745" y1="0" x2="51.745" y2="3" style="stroke: black; stroke-width:0.5;"/>
    
      <line x1="124.188" y1="0" x2="124.188" y2="6" style="stroke: black; stroke-width:0.5;"/>
    
      <line x1="113.839" y1="0" x2="113.839" y2="3" style="stroke: black; stroke-width:0.5;"/>
    
      <line x1="103.49" y1="0" x2="103.49" y2="3" style="stroke: black; stroke-width:0.5;"/>
    
      <line x1="93.141" y1="0" x2="93.141" y2="3" style="stroke: black; stroke-width:0.5;"/>
    
      <line x1="165.584" y1="0" x2="165.584" y2="6" style="stroke: black; stroke-width:0.5;"/>
    
      <line x1="155.235" y1="0" x2="155.235" y2="3" style="stroke: black; stroke-width:0.5;"/>
    
      <line x1="144.886" y1="0" x2="144.886" y2="3" style="stroke: black; stroke-width:0.5;"/>
    
      <line x1="134.537" y1="0" x2="134.537" y2="3" style="stroke: black; stroke-width:0.5;"/>
    
      <line x1="206.98" y1="0" x2="206.98" y2="6" style="stroke: black; stroke-width:0.5;"/>
    
      <line x1="196.631" y1="0" x2="196.631" y2="3" style="stroke: black; stroke-width:0.5;"/>
    
      <line x1="186.282" y1="0" x2="186.282" y2="3" style="stroke: black; stroke-width:0.5;"/>
    
      <line x1="175.933" y1="0" x2="175.933" y2="3" style="stroke: black; stroke-width:0.5;"/>
    
      <line x1="248.376" y1="0" x2="248.376" y2="6" style="stroke: black; stroke-width:0.5;"/>
    
      <line x1="238.027" y1="0" x2="238.027" y2="3" style="stroke: black; stroke-width:0.5;"/>
    
      <line x1="227.678" y1="0" x2="227.678" y2="3" style="stroke: black; stroke-width:0.5;"/>
    
      <line x1="217.329" y1="0" x2="217.329" y2="3" style="stroke: black; stroke-width:0.5;"/>
    
      <line x1="289.772" y1="0" x2="289.772" y2="6" style="stroke: black; stroke-width:0.5;"/>
    
      <line x1="279.423" y1="0" x2="279.423" y2="3" style="stroke: black; stroke-width:0.5;"/>
    
      <line x1="269.074" y1="0" x2="269.074" y2="3" style="stroke: black; stroke-width:0.5;"/>
    
      <line x1="258.725" y1="0" x2="258.725" y2="3" style="stroke: black; stroke-width:0.5;"/>
    
      <line x1="331.168" y1="0" x2="331.168" y2="6" style="stroke: black; stroke-width:0.5;"/>
    
      <line x1="320.819" y1="0" x2="320.819" y2="3" style="stroke: black; stroke-width:0.5;"/>
    
      <line x1="310.47" y1="0" x2="310.47" y2="3" style="stroke: black; stroke-width:0.5;"/>
    
      <line x1="300.121" y1="0" x2="300.121" y2="3" style="stroke: black; stroke-width:0.5;"/>
    
      <line x1="0" y1="-0" x2="-6" y2="-0" style="stroke: black; stroke-width:0.5;"/>
    
      <line x1="0" y1="-0" x2="-3" y2="-0" style="stroke: black; stroke-width:0.5;"/>
    
      <line x1="0" y1="-0" x2="-3" y2="-0" style="stroke: black; stroke-width:0.5;"/>
    
      <line x1="0" y1="-0" x2="-3" y2="-0" style="stroke: black; stroke-width:0.5;"/>
    
      <line x1="0" y1="-27.349" x2="-6" y2="-27.349" style="stroke: black; stroke-width:0.5;"/>
    
      <line x1="0" y1="-20.512" x2="-3" y2="-20.512" style="stroke: black; stroke-width:0.5;"/>
    
      <line x1="0" y1="-13.674" x2="-3" y2="-13.674" style="stroke: black; stroke-width:0.5;"/>
    
      <line x1="0" y1="-6.837" x2="-3" y2="-6.837" style="stroke: black; stroke-width:0.5;"/>
    
      <line x1="0" y1="-54.698" x2="-6" y2="-54.698" style="stroke: black; stroke-width:0.5;"/>
    
      <line x1="0" y1="-47.861" x2="-3" y2="-47.861" style="stroke: black; stroke-width:0.5;"/>
    
      <line x1="0" y1="-41.023" x2="-3" y2="-41.023" style="stroke: black; stroke-width:0.5;"/>
    
      <line x1="0" y1="-34.186" x2="-3" y2="-34.186" style="stroke: black; stroke-width:0.5;"/>
    
      <line x1="0" y1="-82.047" x2="-6" y2="-82.047" style="stroke: black; stroke-width:0.5;"/>
    
      <line x1="0" y1="-75.21" x2="-3" y2="-75.21" style="stroke: black; stroke-width:0.5;"/>
    
      <line x1="0" y1="-68.372" x2="-3" y2="-68.372" style="stroke: black; stroke-width:0.5;"/>
    
      <line x1="0" y1="-61.535" x2="-3" y2="-61.535" style="stroke: black; stroke-width:0.5;"/>
    
      <line x1="0" y1="-109.396" x2="-6" y2="-109.396" style="stroke: black; stroke-width:0.5;"/>
    
      <line x1="0" y1="-102.559" x2="-3" y2="-102.559" style="stroke: black; stroke-width:0.5;"/>
    
      <line x1="0" y1="-95.721" x2="-3" y2="-95.721" style="stroke: black; stroke-width:0.5;"/>
    
      <line x1="0" y1="-88.884" x2="-3" y2="-88.884" style="stroke: black; stroke-width:0.5;"/>
    
      <line x1="0" y1="-136.745" x2="-6" y2="-136.745" style="stroke: black; stroke-width:0.5;"/>
    
      <line x1="0" y1="-129.908" x2="-3" y2="-129.908" style="stroke: black; stroke-width:0.5;"/>
    
      <line x1="0" y1="-123.07" x2="-3" y2="-123.07" style="stroke: black; stroke-width:0.5;"/>
    
      <line x1="0" y1="-116.233" x2="-3" y2="-116.233" style="stroke: black; stroke-width:0.5;"/>
    
      <line x1="0" y1="-164.094" x2="-6" y2="-164.094" style="stroke: black; stroke-width:0.5;"/>
    
      <line x1="0" y1="-157.257" x2="-3" y2="-157.257" style="stroke: black; stroke-width:0.5;"/>
    
      <line x1="0" y1="-150.419" x2="-3" y2="-150.419" style="stroke: black; stroke-width:0.5;"/>
    
      <line x1="0" y1="-143.582" x2="-3" y2="-143.582" style="stroke: black; stroke-width:0.5;"/>
    
      <line x1="0" y1="-191.443" x2="-6" y2="-191.443" style="stroke: black; stroke-width:0.5;"/>
    
      <line x1="0" y1="-184.605" x2="-3" y2="-184.605" style="stroke: black; stroke-width:0.5;"/>
    
      <line x1="0" y1="-177.768" x2="-3" y2="-177.768" style="stroke: black; stroke-width:0.5;"/>
    
      <line x1="0" y1="-170.931" x2="-3" y2="-170.931" style="stroke: black; stroke-width:0.5;"/>
    
      <line x1="0" y1="-218.792" x2="-6" y2="-218.792" style="stroke: black; stroke-width:0.5;"/>
    
      <line x1="0" y1="-211.954" x2="-3" y2="-211.954" style="stroke: black; stroke-width:0.5;"/>
    
      <line x1="0" y1="-205.117" x2="-3" y2="-205.117" style="stroke: black; stroke-width:0.5;"/>
    
      <line x1="0" y1="-198.28" x2="-3" y2="-198.28" style="stroke: black; stroke-width:0.5;"/>
    
      <line x1="0" y1="-246.141" x2="-6" y2="-246.141" style="stroke: black; stroke-width:0.5;"/>
    
      <line x1="0" y1="-239.303" x2="-3" y2="-239.303" style="stroke: black; stroke-width:0.5;"/>
    
      <line x1="0" y1="-232.466" x2="-3" y2="-232.466" style="stroke: black; stroke-width:0.5;"/>
    
      <line x1="0" y1="-225.629" x2="-3" y2="-225.629" style="stroke: black; stroke-width:0.5;"/>
    
      <line x1="-60" y1="-0" x2="-66" y2="-0" style="stroke: #d00; stroke-width:0.5;"/>
    
      <line x1="-60" y1="-0" x2="-63" y2="-0" style="stroke: #d00; stroke-width:0.5;"/>
    
      <line x1="-60" y1="-0" x2="-63" y2="-0" style="stroke: #d00; stroke-width:0.5;"/>
    
      <line x1="-60" y1="-0" x2="-63" y2="-0" style="stroke: #d00; stroke-width:0.5;"/>
    
      <line x1="-60" y1="-41.246" x2="-66" y2="-41.246" style="stroke: #d00; stroke-width:0.5;"/>
    
      <line x1="-60" y1="-30.935" x2="-63" y2="-30.935" style="stroke: #d00; stroke-width:0.5;"/>
    
      <line x1="-60" y1="-20.623" x2="-63" y2="-20.623" style="stroke: #d00; stroke-width:0.5;"/>
    
      <line x1="-60" y1="-10.312" x2="-63" y2="-10.312" style="stroke: #d00; stroke-width:0.5;"/>
    
      <line x1="-60" y1="-82.492" x2="-66" y2="-82.492" style="stroke: #d00; stroke-width:0.5;"/>
    
      <line x1="-60" y1="-72.181" x2="-63" y2="-72.181" style="stroke: #d00; stroke-width:0.5;"/>
    
      <line x1="-60" y1="-61.869" x2="-63" y2="-61.869" style="stroke: #d00; stroke-width:0.5;"/>
    
      <line x1="-60" y1="-51.558" x2="-63" y2="-51.558" style="stroke: #d00; stroke-width:0.5;"/>
    
      <line x1="-60" y1="-123.738" x2="-66" y2="-123.738" style="stroke: #d00; stroke-width:0.5;"/>
    
      <line x1="-60" y1="-113.427" x2="-63" y2="-113.427" style="stroke: #d00; stroke-width:0.5;"/>
    
      <line x1="-60" y1="-103.115" x2="-63" y2="-103.115" style="stroke: #d00; stroke-width:0.5;"/>
    
      <line x1="-60" y1="-92.804" x2="-63" y2="-92.804" style="stroke: #d00; stroke-width:0.5;"/>
    
      <line x1="-60" y1="-164.984" x2="-66" y2="-164.984" style="stroke: #d00; stroke-width:0.5;"/>
    
      <line x1="-60" y1="-154.673" x2="-63" y2="-154.673" style="stroke: #d00; stroke-width:0.5;"/>
    
      <line x1="-60" y1="-144.361" x2="-63" y2="-144.361" style="stroke: #d00; stroke-width:0.5;"/>
    
      <line x1="-60" y1="-134.05" x2="-63" y2="-134.05" style="stroke: #d00; stroke-width:0.5;"/>
    
      <line x1="-60" y1="-206.23" x2="-66" y2="-206.23" style="stroke: #d00; stroke-width:0.5;"/>
    
      <line x1="-60" y1="-195.919" x2="-63" y2="-195.919" style="stroke: #d00; stroke-width:0.5;"/>
    
      <line x1="-60" y1="-185.607" x2="-63" y2="-185.607" style="stroke: #d00; stroke-width:0.5;"/>
    
      <line x1="-60" y1="-175.296" x2="-63" y2="-175.296" style="stroke: #d00; stroke-width:0.5;"/>
    
      <line x1="-60" y1="-247.476" x2="-66" y2="-247.476" style="stroke: #d00; stroke-width:0.5;"/>
    
      <line x1="-60" y1="-237.165" x2="-63" y2="-237.165" style="stroke: #d00; stroke-width:0.5;"/>
    
      <line x1="-60" y1="-226.853" x2="-63" y2="-226.853" style="stroke: #d00; stroke-width:0.5;"/>
    
      <line x1="-60" y1="-216.542" x2="-63" y2="-216.542" style="stroke: #d00; stroke-width:0.5;"/>
    
      <line x1="335" y1="-0" x2="341" y2="-0" style="stroke: #05d; stroke-width:0.5;"/>
    
      <line x1="335" y1="-0" x2="338" y2="-0" style="stroke: #05d; stroke-width:0.5;"/>
    
      <line x1="335" y1="-0" x2="338" y2="-0" style="stroke: #05d; stroke-width:0.5;"/>
    
      <line x1="335" y1="-0" x2="338" y2="-0" style="stroke: #05d; stroke-width:0.5;"/>
    
      <line x1="335" y1="-28.399" x2="341" y2="-28.399" style="stroke: #05d; stroke-width:0.5;"/>
    
      <line x1="335" y1="-21.3" x2="338" y2="-21.3" style="stroke: #05d; stroke-width:0.5;"/>
    
      <line x1="335" y1="-14.2" x2="338" y2="-14.2" style="stroke: #05d; stroke-width:0.5;"/>
    
      <line x1="335" y1="-7.1" x2="338" y2="-7.1" style="stroke: #05d; stroke-width:0.5;"/>
    
      <line x1="335" y1="-56.799" x2="341" y2="-56.799" style="stroke: #05d; stroke-width:0.5;"/>
    
      <line x1="335" y1="-49.699" x2="338" y2="-49.699" style="stroke: #05d; stroke-width:0.5;"/>
    
      <line x1="335" y1="-42.599" x2="338" y2="-42.599" style="stroke: #05d; stroke-width:0.5;"/>
    
      <line x1="335" y1="-35.499" x2="338" y2="-35.499" style="stroke: #05d; stroke-width:0.5;"/>
    
      <line x1="335" y1="-85.198" x2="341" y2="-85.198" style="stroke: #05d; stroke-width:0.5;"/>
    
      <line x1="335" y1="-78.098" x2="338" y2="-78.098" style="stroke: #05d; stroke-width:0.5;"/>
    
      <line x1="335" y1="-70.998" x2="338" y2="-70.998" style="stroke: #05d; stroke-width:0.5;"/>
    
      <line x1="335" y1="-63.899" x2="338" y2="-63.899" style="stroke: #05d; stroke-width:0.5;"/>
    
      <line x1="335" y1="-113.597" x2="341" y2="-113.597" style="stroke: #05d; stroke-width:0.5;"/>
    
      <line x1="335" y1="-106.498" x2="338" y2="-106.498" style="stroke: #05d; stroke-width:0.5;"/>
    
      <line x1="335" y1="-99.398" x2="338" y2="-99.398" style="stroke: #05d; stroke-width:0.5;"/>
    
      <line x1="335" y1="-92.298" x2="338" y2="-92.298" style="stroke: #05d; stroke-width:0.5;"/>
    
      <line x1="335" y1="-141.997" x2="341" y2="-141.997" style="stroke: #05d; stroke-width:0.5;"/>
    
      <line x1="335" y1="-134.897" x2="338" y2="-134.897" style="stroke: #05d; stroke-width:0.5;"/>
    
      <line x1="335" y1="-127.797" x2="338" y2="-127.797" style="stroke: #05d; stroke-width:0.5;"/>
    
      <line x1="335" y1="-120.697" x2="338" y2="-120.697" style="stroke: #05d; stroke-width:0.5;"/>
    
      <line x1="335" y1="-170.396" x2="341" y2="-170.396" style="stroke: #05d; stroke-width:0.5;"/>
    
      <line x1="335" y1="-163.296" x2="338" y2="-163.296" style="stroke: #05d; stroke-width:0.5;"/>
    
      <line x1="335" y1="-156.197" x2="338" y2="-156.197" style="stroke: #05d; stroke-width:0.5;"/>
    
      <line x1="335" y1="-149.097" x2="338" y2="-149.097" style="stroke: #05d; stroke-width:0.5;"/>
    
      <line x1="335" y1="-198.796" x2="341" y2="-198.796" style="stroke: #05d; stroke-width:0.5;"/>
    
      <line x1="335" y1="-191.696" x2="338" y2="-191.696" style="stroke: #05d; stroke-width:0.5;"/>
    
      <line x1="335" y1="-184.596" x2="338" y2="-184.596" style="stroke: #05d; stroke-width:0.5;"/>
    
      <line x1="335" y1="-177.496" x2="338" y2="-177.496" style="stroke: #05d; stroke-width:0.5;"/>
    
      <line x1="335" y1="-227.195" x2="341" y2="-227.195" style="stroke: #05d; stroke-width:0.5;"/>
    
      <line x1="335" y1="-220.095" x2="338" y2="-220.095" style="stroke: #05d; stroke-width:0.5;"/>
    
      <line x1="335" y1="-212.995" x2="338" y2="-212.995" style="stroke: #05d; stroke-width:0.5;"/>
    
      <line x1="335" y1="-205.895" x2="338" y2="-205.895" style="stroke: #05d; stroke-width:0.5;"/>
    
      <line x1="395" y1="-0" x2="401" y2="-0" style="stroke: #191; stroke-width:0.5;"/>
    
      <line x1="395" y1="-0" x2="398" y2="-0" style="stroke: #191; stroke-width:0.5;"/>
    
      <line x1="395" y1="-0" x2="398" y2="-0" style="stroke: #191; stroke-width:0.5;"/>
    
      <line x1="395" y1="-0" x2="398" y2="-0" style="stroke: #191; stroke-width:0.5;"/>
    
      <line x1="395" y1="-23.793" x2="401" y2="-23.793" style="stroke: #191; stroke-width:0.5;"/>
    
      <line x1="395" y1="-17.844" x2="398" y2="-17.844" style="stroke: #191; stroke-width:0.5;"/>
    
      <line x1="395" y1="-11.896" x2="398" y2="-11.896" style="stroke: #191; stroke-width:0.5;"/>
    
      <line x1="395" y1="-5.948" x2="398" y2="-5.948" style="stroke: #191; stroke-width:0.5;"/>
    
      <line x1="395" y1="-47.585" x2="401" y2="-47.585" style="stroke: #191; stroke-width:0.5;"/>
    
      <line x1="395" y1="-41.637" x2="398" y2="-41.637" style="stroke: #191; stroke-width:0.5;"/>
    
      <line x1="395" y1="-35.689" x2="398" y2="-35.689" style="stroke: #191; stroke-width:0.5;"/>
    
      <line x1="395" y1="-29.741" x2="398" y2="-29.741" style="stroke: #191; stroke-width:0.5;"/>
    
      <line x1="395" y1="-71.378" x2="401" y2="-71.378" style="stroke: #191; stroke-width:0.5;"/>
    
      <line x1="395" y1="-65.43" x2="398" y2="-65.43" style="stroke: #191; stroke-width:0.5;"/>
    
      <line x1="395" y1="-59.482" x2="398" y2="-59.482" style="stroke: #191; stroke-width:0.5;"/>
    
      <line x1="395" y1="-53.533" x2="398" y2="-53.533" style="stroke: #191; stroke-width:0.5;"/>
    
      <line x1="395" y1="-95.17" x2="401" y2="-95.17" style="stroke: #191; stroke-width:0.5;"/>
    
      <line x1="395" y1="-89.222" x2="398" y2="-89.222" style="stroke: #191; stroke-width:0.5;"/>
    
      <line x1="395" y1="-83.274" x2="398" y2="-83.274" style="stroke: #191; stroke-width:0.5;"/>
    
      <line x1="395" y1="-77.326" x2="398" y2="-77.326" style="stroke: #191; stroke-width:0.5;"/>
    
      <line x1="395" y1="-118.963" x2="401" y2="-118.963" style="stroke: #191; stroke-width:0.5;"/>
    
      <line x1="395" y1="-113.015" x2="398" y2="-113.015" style="stroke: #191; stroke-width:0.5;"/>
    
      <line x1="395" y1="-107.067" x2="398" y2="-107.067" style="stroke: #191; stroke-width:0.5;"/>
    
      <line x1="395" y1="-101.119" x2="398" y2="-101.119" style="stroke: #191; stroke-width:0.5;"/>
    
      <line x1="395" y1="-142.756" x2="401" y2="-142.756" style="stroke: #191; stroke-width:0.5;"/>
    
      <line x1="395" y1="-136.808" x2="398" y2="-136.808" style="stroke: #191; stroke-width:0.5;"/>
    
      <line x1="395" y1="-130.859" x2="398" y2="-130.859" style="stroke: #191; stroke-width:0.5;"/>
    
      <line x1="395" y1="-124.911" x2="398" y2="-124.911" style="stroke: #191; stroke-width:0.5;"/>
    
      <line x1="395" y1="-166.548" x2="401" y2="-166.548" style="stroke: #191; stroke-width:0.5;"/>
    
      <line x1="395" y1="-160.6" x2="398" y2="-160.6" style="stroke: #191; stroke-width:0.5;"/>
    
      <line x1="395" y1="-154.652" x2="398" y2="-154.652" style="stroke: #191; stroke-width:0.5;"/>
    
      <line x1="395" y1="-148.704" x2="398" y2="-148.704" style="stroke: #191; stroke-width:0.5;"/>
    
      <line x1="395" y1="-190.341" x2="401" y2="-190.341" style="stroke: #191; stroke-width:0.5;"/>
    
      <line x1="395" y1="-184.393" x2="398" y2="-184.393" style="stroke: #191; stroke-width:0.5;"/>
    
      <line x1="395" y1="-178.445" x2="398" y2="-178.445" style="stroke: #191; stroke-width:0.5;"/>
    
      <line x1="395" y1="-172.496" x2="398" y2="-172.496" style="stroke: #191; stroke-width:0.5;"/>
    
      <line x1="395" y1="-214.134" x2="401" y2="-214.134" style="stroke: #191; stroke-width:0.5;"/>
    
      <line x1="395" y1="-208.185" x2="398" y2="-208.185" style="stroke: #191; stroke-width:0.5;"/>
    
      <line x1="395" y1="-202.237" x2="398" y2="-202.237" style="stroke: #191; stroke-width:0.5;"/>
    
      <line x1="395" y1="-196.289" x2="398" y2="-196.289" style="stroke: #191; stroke-width:0.5;"/>
    
      <line x1="395" y1="-237.926" x2="401" y2="-237.926" style="stroke: #191; stroke-width:0.5;"/>
    
      <line x1="395" y1="-231.978" x2="398" y2="-231.978" style="stroke: #191; stroke-width:0.5;"/>
    
      <line x1="395" y1="-226.03" x2="398" y2="-226.03" style="stroke: #191; stroke-width:0.5;"/>
    
      <line x1="395" y1="-220.082" x2="398" y2="-220.082" style="stroke: #191; stroke-width:0.5;"/>
    
    
      <text class="text" x="0" y="15" text-anchor="middle" transform="translate(0,4)" style="fill: ">0</text>
    
      <text class="text" x="41.396" y="15" text-anchor="middle" transform="translate(0,4)" style="fill: ">2,5</text>
    
      <text class="text" x="82.792" y="15" text-anchor="middle" transform="translate(0,4)" style="fill: ">5</text>
    
      <text class="text" x="124.188" y="15" text-anchor="middle" transform="translate(0,4)" style="fill: ">7,5</text>
    
      <text class="text" x="165.584" y="15" text-anchor="middle" transform="translate(0,4)" style="fill: ">10</text>
    
      <text class="text" x="206.98" y="15" text-anchor="middle" transform="translate(0,4)" style="fill: ">12,5</text>
    
      <text class="text" x="248.376" y="15" text-anchor="middle" transform="translate(0,4)" style="fill: ">15</text>
    
      <text class="text" x="289.772" y="15" text-anchor="middle" transform="translate(0,4)" style="fill: ">17,5</text>
    
      <text class="text" x="331.168" y="15" text-anchor="middle" transform="translate(0,4)" style="fill: ">20</text>
    
      <text class="text" x="-10" y="-0" text-anchor="end" transform="translate(0,4)" style="fill: black">0</text>
    
      <text class="text" x="-10" y="-27.349" text-anchor="end" transform="translate(0,4)" style="fill: black">1.000</text>
    
      <text class="text" x="-10" y="-54.698" text-anchor="end" transform="translate(0,4)" style="fill: black">2.000</text>
    
      <text class="text" x="-10" y="-82.047" text-anchor="end" transform="translate(0,4)" style="fill: black">3.000</text>
    
      <text class="text" x="-10" y="-109.396" text-anchor="end" transform="translate(0,4)" style="fill: black">4.000</text>
    
      <text class="text" x="-10" y="-136.745" text-anchor="end" transform="translate(0,4)" style="fill: black">5.000</text>
    
      <text class="text" x="-10" y="-164.094" text-anchor="end" transform="translate(0,4)" style="fill: black">6.000</text>
    
      <text class="text" x="-10" y="-191.443" text-anchor="end" transform="translate(0,4)" style="fill: black">7.000</text>
    
      <text class="text" x="-10" y="-218.792" text-anchor="end" transform="translate(0,4)" style="fill: black">8.000</text>
    
      <text class="text" x="-10" y="-246.141" text-anchor="end" transform="translate(0,4)" style="fill: black">9.000</text>
    
      <text class="text" x="-70" y="-0" text-anchor="end" transform="translate(0,4)" style="fill: #d00">0</text>
    
      <text class="text" x="-70" y="-41.246" text-anchor="end" transform="translate(0,4)" style="fill: #d00">0,5</text>
    
      <text class="text" x="-70" y="-82.492" text-anchor="end" transform="translate(0,4)" style="fill: #d00">1</text>
    
      <text class="text" x="-70" y="-123.738" text-anchor="end" transform="translate(0,4)" style="fill: #d00">1,5</text>
    
      <text class="text" x="-70" y="-164.984" text-anchor="end" transform="translate(0,4)" style="fill: #d00">2</text>
    
      <text class="text" x="-70" y="-206.23" text-anchor="end" transform="translate(0,4)" style="fill: #d00">2,5</text>
    
      <text class="text" x="-70" y="-247.476" text-anchor="end" transform="translate(0,4)" style="fill: #d00">3</text>
    
      <text class="text" x="345" y="-0" text-anchor="start" transform="translate(0,4)" style="fill: #05d">0</text>
    
      <text class="text" x="345" y="-28.399" text-anchor="start" transform="translate(0,4)" style="fill: #05d">0,5</text>
    
      <text class="text" x="345" y="-56.799" text-anchor="start" transform="translate(0,4)" style="fill: #05d">1</text>
    
      <text class="text" x="345" y="-85.198" text-anchor="start" transform="translate(0,4)" style="fill: #05d">1,5</text>
    
      <text class="text" x="345" y="-113.597" text-anchor="start" transform="translate(0,4)" style="fill: #05d">2</text>
    
      <text class="text" x="345" y="-141.997" text-anchor="start" transform="translate(0,4)" style="fill: #05d">2,5</text>
    
      <text class="text" x="345" y="-170.396" text-anchor="start" transform="translate(0,4)" style="fill: #05d">3</text>
    
      <text class="text" x="345" y="-198.796" text-anchor="start" transform="translate(0,4)" style="fill: #05d">3,5</text>
    
      <text class="text" x="345" y="-227.195" text-anchor="start" transform="translate(0,4)" style="fill: #05d">4</text>
    
      <text class="text" x="405" y="-0" text-anchor="start" transform="translate(0,4)" style="fill: #191">0</text>
    
      <text class="text" x="405" y="-23.793" text-anchor="start" transform="translate(0,4)" style="fill: #191">10</text>
    
      <text class="text" x="405" y="-47.585" text-anchor="start" transform="translate(0,4)" style="fill: #191">20</text>
    
      <text class="text" x="405" y="-71.378" text-anchor="start" transform="translate(0,4)" style="fill: #191">30</text>
    
      <text class="text" x="405" y="-95.17" text-anchor="start" transform="translate(0,4)" style="fill: #191">40</text>
    
      <text class="text" x="405" y="-118.963" text-anchor="start" transform="translate(0,4)" style="fill: #191">50</text>
    
      <text class="text" x="405" y="-142.756" text-anchor="start" transform="translate(0,4)" style="fill: #191">60</text>
    
      <text class="text" x="405" y="-166.548" text-anchor="start" transform="translate(0,4)" style="fill: #191">70</text>
    
      <text class="text" x="405" y="-190.341" text-anchor="start" transform="translate(0,4)" style="fill: #191">80</text>
    
      <text class="text" x="405" y="-214.134" text-anchor="start" transform="translate(0,4)" style="fill: #191">90</text>
    
      <text class="text" x="405" y="-237.926" text-anchor="start" transform="translate(0,4)" style="fill: #191">100</text>
    
  </g>

</svg>

